<?xml version="1.0" encoding="UTF-8"?>
<svg width="1200pt" height="1200pt" version="1.1" viewBox="0 0 1200 1200" xmlns="http://www.w3.org/2000/svg">
 <path d="m727.2 502.8c-2.3984-2.3984-3.6016-4.8008-3.6016-8.3984l0.003906-248.4c0-2.3984 1.1992-6 3.6016-7.1992 2.3984-2.3984 4.8008-2.3984 8.3984-2.3984l241.2 26.398c4.8008 0 9.6016 4.8008 9.6016 9.6016l-0.003906 687.6 105.6 111.6c3.6016 3.6016 3.6016 9.6016 1.1992 13.199-2.3984 2.3984-7.1992 4.8008-12 3.6016-30-9.6016-121.2-37.203-121.2-37.203l16.801 52.801c1.1992 3.6016 0 8.3984-2.3984 10.801-2.3984 1.1992-7.1992 2.3984-12 0l-110.4-51.602s-76.801 37.199-108 52.801c-2.3984 1.1992-8.3984 2.3984-13.199 0-3.6016-2.3984-2.3984-9.6016-1.1992-13.199l16.801-52.801s-86.398 27.602-117.6 38.398c-1.1992 0-9.6016 1.1992-13.199-4.8008-2.3984-3.6016-1.1992-8.3984 2.3984-12 26.398-27.602 105.6-111.6 105.6-111.6v-217.2c0-3.6016 2.3984-7.1992 6-9.6016 32.398-18 172.8-88.801 172.8-88.801zm-469.2-255.6c0-49.199 18-72 38.398-81.602v-6c0-6 4.8008-9.6016 9.6016-9.6016s9.6016 4.8008 9.6016 9.6016c0 0 6-1.1992 12-1.1992 20.398 0 37.199 6 49.199 18 13.199 13.199 20.398 33.602 21.602 60h15.602c6 0 9.6016 4.8008 9.6016 9.6016s-4.8008 9.6016-9.6016 9.6016h-24v1.1992c0 40.801-27.602 74.398-61.199 75.602-33.602 0-61.199-33.602-62.398-74.398v-1.1992c-4.8047-1.2031-8.4062-3.6055-8.4062-9.6055zm72-68.398c-4.8008 0-8.3984 0-12 1.1992v28.801c13.199 3.6016 24 14.398 27.602 27.602h34.801c-1.1992-20.398-6-36-15.602-45.602-9.6016-9.6016-20.402-12-34.801-12zm42 78h-26.398c-4.8008 16.801-19.199 28.801-37.199 28.801-4.8008 0-9.6016-1.1992-14.398-2.3984 6 16.801 20.398 28.801 36 28.801 22.797-0.003906 41.996-24.004 41.996-55.203v0zm-84-9.6016c0 10.801 8.3984 19.199 19.199 19.199s19.199-8.3984 19.199-19.199-8.3984-19.199-19.199-19.199-19.199 8.3984-19.199 19.199zm9.6016-57.598c-7.1992 6-12 15.602-15.602 27.602 3.6016-3.6016 8.3984-7.1992 15.602-8.3984zm-135.6 342 54-151.2c4.8008-14.398 19.199-24 34.801-24h115.2c20.398 0 36 16.801 36 36v135.6l84-32.398v-6c0-6 4.8008-9.6016 9.6016-9.6016h62.398c6 0 9.6016 4.8008 9.6016 9.6016v72h10.801c6 0 9.6016 4.8008 9.6016 12h176.4c25.199 0 45.602 20.398 45.602 45.602 0 25.199-20.398 45.602-45.602 45.602l-224.4-0.003907v2.3984c0 6-4.8008 9.6016-9.6016 9.6016h-129.6l78 416.4-40.801 8.3984c-20.398 3.6016-44.398-6-50.398-33.602l-46.801-252 8.3984-49.199c1.1992-6-2.3984-10.801-8.3984-12-4.8008-1.1992-10.801 1.1992-12 7.1992-8.3984 43.199-55.199 308.4-55.199 308.4-3.6016 20.398-21.602 34.801-40.801 34.801-2.3984 0-6 0-8.3984-1.1992-22.801-6-37.199-26.398-32.398-49.199l72-398.4v-37.199l-84.004-43.199c-16.801-8.3984-24-26.398-18-44.398zm601.2 62.398h-194.4l-15.602 15.602h207.6c6 0 9.6016 4.8008 9.6016 9.6016s-4.8008 9.6016-9.6016 9.6016l-220.8-0.003907v15.602h224.4c14.398 0 25.199-12 25.199-25.199 0.003906-13.203-11.996-25.203-26.398-25.203zm-354 63.602v-75.602h-24l-121.2-63.602 22.801-62.398c2.3984-4.8008-1.1992-10.801-6-13.199-4.8008-1.1992-9.6016 0-12 4.8008l-28.801 79.199s92.398 48 133.2 69.602c3.6016 1.1992 7.1992 3.6016 9.6016 7.1992 9.6016 12 13.199 27.602 4.8008 42-2.3984 4.8008-7.1992 9.6016-10.801 12zm136.8-157.2h-32.398c6 3.6016 12 9.6016 14.398 18 6 16.801 0 34.801-14.398 44.398h32.398zm171.6 223.2c3.6016-3.6016 3.6016-10.801 0-14.398-3.6016-3.6016-10.801-3.6016-14.398 0 0 0-15.602 16.801-21.602 22.801-3.6016 3.6016-3.6016 10.801 0 14.398 4.8008 3.6016 10.801 3.6016 14.398 0 10.801-10.801 21.602-22.801 21.602-22.801zm-43.203 96-9.6016 9.6016c-3.6016 3.6016-3.6016 10.801 0 14.398 4.8008 3.6016 12 2.3984 14.398 0 3.6016-3.6016 8.3984-8.3984 10.801-10.801 3.6016-3.6016 3.6016-10.801 0-14.398-3.5977-4.8008-10.797-3.6016-15.598 1.1992zm-20.398-55.203c-3.6016 3.6016-3.6016 10.801 0 14.398 2.3984 2.3984 8.3984 8.3984 10.801 10.801 3.6016 3.6016 9.6016 3.6016 14.398 0 4.8008-3.6016 3.6016-10.801 0-14.398 0 0-4.8008-3.6016-10.801-10.801-3.5977-4.7969-9.5977-4.7969-14.398 0z"/>
</svg>
