<?xml version="1.0" encoding="UTF-8"?>
<svg width="1200pt" height="1200pt" version="1.1" viewBox="0 0 1200 1200" xmlns="http://www.w3.org/2000/svg">
 <g fill-rule="evenodd">
  <path d="m1012.5 518.25-112.55-51.957c-71.344-32.926-153.54-32.926-224.89 0l-0.019532 0.019531c-22.574 10.406-45.695 19.48-69.207 27.168-9.8438 3.207-20.438-2.1758-23.664-12-3.207-9.8438 2.1758-20.438 12-23.645 22.164-7.2383 43.914-15.77 65.156-25.574l0.019531-0.019531c81.32-37.52 174.99-37.52 256.31 0 61.461 28.367 123.45 56.98 123.45 56.98 6.6367 3.0547 10.895 9.7109 10.895 17.023v525c0 10.352-8.3984 18.75-18.75 18.75h-862.5c-10.352 0-18.75-8.3984-18.75-18.75v-468.75c0-10.352 8.3984-18.75 18.75-18.75s18.75 8.3984 18.75 18.75v450h825v-494.25z"/>
  <path d="m1012.5 750h-37.5c-10.352 0-18.75-8.3984-18.75-18.75s8.3984-18.75 18.75-18.75h56.25c10.352 0 18.75 8.3984 18.75 18.75v300c0 10.352-8.3984 18.75-18.75 18.75h-862.5c-10.352 0-18.75-8.3984-18.75-18.75v-300c0-7.3125 4.2578-13.969 10.895-17.023 0 0 61.988-28.613 123.45-56.98 81.32-37.52 174.99-37.52 256.31 0l0.019531 0.019531c55.367 25.555 114.19 42.469 174.39 50.27 10.258 1.3125 17.512 10.727 16.18 21-1.332 10.258-10.742 17.512-21 16.18-63.957-8.2891-126.45-26.25-185.29-53.398l-0.019532-0.019531c-71.344-32.926-153.54-32.926-224.89 0l-112.55 51.957v269.25h825z"/>
  <path d="m1031.2 1050c10.352 0 18.75-8.3984 18.75-18.75v-112.5c0-10.352-8.3984-18.75-18.75-18.75h-403.41c-106.84 0-209.3 42.43-284.85 117.99-5.3633 5.3633-6.9766 13.426-4.0703 20.438 2.9062 6.9922 9.75 11.57 17.324 11.57zm-18.75-112.5h-384.66c-80.586 0-158.42 26.625-221.76 75h606.41z"/>
  <path d="m900 656.25c0-10.352-8.3984-18.75-18.75-18.75h-75c-10.352 0-18.75 8.3984-18.75 18.75v262.5c0 10.352 8.3984 18.75 18.75 18.75h75c10.352 0 18.75-8.3984 18.75-18.75zm-75 18.75v225h37.5v-225z"/>
  <path d="m693.75 768.75c0-10.352-8.3984-18.75-18.75-18.75h-75c-10.352 0-18.75 8.3984-18.75 18.75v150c0 10.352 8.3984 18.75 18.75 18.75h75c10.352 0 18.75-8.3984 18.75-18.75zm-75 18.75v112.5h37.5v-112.5z"/>
  <path d="m693.75 768.75c0-10.352-8.3984-18.75-18.75-18.75h-75c-10.352 0-18.75 8.3984-18.75 18.75v150c0 10.352 8.3984 18.75 18.75 18.75h75c10.352 0 18.75-8.3984 18.75-18.75zm-75 18.75v112.5h37.5v-112.5z"/>
  <path d="m894.51 838.26 56.25-56.25c7.3125-7.3125 7.3125-19.199 0-26.512s-19.199-7.3125-26.512 0l-56.25 56.25c-7.3125 7.3125-7.3125 19.199 0 26.512s19.199 7.3125 26.512 0z"/>
  <path d="m275.76 567.99-56.25-56.25c-7.3125-7.3125-19.199-7.3125-26.512 0s-7.3125 19.199 0 26.512l56.25 56.25c7.3125 7.3125 19.199 7.3125 26.512 0s7.3125-19.199 0-26.512z"/>
  <path d="m988.26 350.76 56.25-56.25c7.3125-7.3125 7.3125-19.199 0-26.512s-19.199-7.3125-26.512 0l-56.25 56.25c-7.3125 7.3125-7.3125 19.199 0 26.512s19.199 7.3125 26.512 0z"/>
  <path d="m688.26 894.51 56.25-56.25c7.3125-7.3125 7.3125-19.199 0-26.512s-19.199-7.3125-26.512 0l-56.25 56.25c-7.3125 7.3125-7.3125 19.199 0 26.512s19.199 7.3125 26.512 0z"/>
  <path d="m688.26 894.51 56.25-56.25c7.3125-7.3125 7.3125-19.199 0-26.512s-19.199-7.3125-26.512 0l-56.25 56.25c-7.3125 7.3125-7.3125 19.199 0 26.512s19.199 7.3125 26.512 0z"/>
  <path d="m482.01 624.24-56.25-56.25c-7.3125-7.3125-19.199-7.3125-26.512 0s-7.3125 19.199 0 26.512l56.25 56.25c7.3125 7.3125 19.199 7.3125 26.512 0s7.3125-19.199 0-26.512z"/>
  <path d="m782.01 407.01 56.25-56.25c7.3125-7.3125 7.3125-19.199 0-26.512s-19.199-7.3125-26.512 0l-56.25 56.25c-7.3125 7.3125-7.3125 19.199 0 26.512s19.199 7.3125 26.512 0z"/>
  <path d="m819.51 774.24-37.5-37.5c-7.3125-7.3125-19.199-7.3125-26.512 0s-7.3125 19.199 0 26.512l37.5 37.5c7.3125 7.3125 19.199 7.3125 26.512 0s7.3125-19.199 0-26.512z"/>
  <path d="m350.76 557.01 37.5-37.5c7.3125-7.3125 7.3125-19.199 0-26.512s-19.199-7.3125-26.512 0l-37.5 37.5c-7.3125 7.3125-7.3125 19.199 0 26.512s19.199 7.3125 26.512 0z"/>
  <path d="m913.26 286.74-37.5-37.5c-7.3125-7.3125-19.199-7.3125-26.512 0s-7.3125 19.199 0 26.512l37.5 37.5c7.3125 7.3125 19.199 7.3125 26.512 0s7.3125-19.199 0-26.512z"/>
  <path d="m613.26 811.74-37.5-37.5c-7.3125-7.3125-19.199-7.3125-26.512 0s-7.3125 19.199 0 26.512l37.5 37.5c7.3125 7.3125 19.199 7.3125 26.512 0s7.3125-19.199 0-26.512z"/>
  <path d="m613.26 811.74-37.5-37.5c-7.3125-7.3125-19.199-7.3125-26.512 0s-7.3125 19.199 0 26.512l37.5 37.5c7.3125 7.3125 19.199 7.3125 26.512 0s7.3125-19.199 0-26.512z"/>
  <path d="m557.01 594.51 37.5-37.5c7.3125-7.3125 7.3125-19.199 0-26.512s-19.199-7.3125-26.512 0l-37.5 37.5c-7.3125 7.3125-7.3125 19.199 0 26.512s19.199 7.3125 26.512 0z"/>
  <path d="m707.01 324.24-37.5-37.5c-7.3125-7.3125-19.199-7.3125-26.512 0s-7.3125 19.199 0 26.512l37.5 37.5c7.3125 7.3125 19.199 7.3125 26.512 0s7.3125-19.199 0-26.512z"/>
  <path d="m536.23 696.38c5.793 2.5312 12.488 1.9883 17.773-1.4805 5.3047-3.4688 8.4922-9.3555 8.4922-15.695v-180.99c0-10.352-8.3984-18.75-18.75-18.75h-75c-10.352 0-18.75 8.3984-18.75 18.75v155.21c0 8.9258 6.3203 16.633 15.074 18.375 20.457 4.0859 40.555 10.594 59.867 19.5l11.289 5.082zm-11.23-45.824v-133.59h-37.5v121.48c12.695 3.207 25.219 7.2383 37.5 12.113z"/>
  <path d="m342.39 675.92c8.1758-2.2109 13.855-9.6367 13.855-18.094v-245.32c0-10.352-8.3984-18.75-18.75-18.75h-75c-10.352 0-18.75 8.3984-18.75 18.75v275.48c0 6.3945 3.2617 12.355 8.6445 15.805 5.3828 3.4297 12.148 3.8984 17.961 1.2188l29.699-13.707c13.762-6.3555 27.938-11.477 42.336-15.375zm-23.645-32.102v-212.57h-37.5v227.42l3.0938-1.4258c11.25-5.1953 22.742-9.6562 34.406-13.426z"/>
  <path d="m769.97 442.18c9.8633-0.65625 17.531-8.832 17.531-18.711v-179.72c0-10.352-8.3984-18.75-18.75-18.75h-75c-10.352 0-18.75 8.3984-18.75 18.75v194.83c0 6.0742 2.9258 11.758 7.875 15.281 4.9297 3.5078 11.27 4.4258 17.008 2.457 22.781-7.875 46.352-12.602 70.086-14.137zm-19.969-35.758v-143.93h-37.5v150.94c12.375-3.1328 24.898-5.4766 37.5-7.0117z"/>
  <path d="m967.14 497.3c5.8125 2.6797 12.582 2.2305 17.961-1.2188 5.3828-3.4492 8.6445-9.4141 8.6445-15.805v-311.53c0-10.352-8.3984-18.75-18.75-18.75h-75c-10.352 0-18.75 8.3984-18.75 18.75v277.07c0 7.5195 4.4805 14.305 11.398 17.25 2.4375 1.0312 4.875 2.1172 7.293 3.2266l67.199 31.012zm-48.395-309.8v246.17l37.5 17.305v-263.48h-37.5z"/>
 </g>
</svg>
