<?xml version="1.0" encoding="UTF-8"?>
<svg width="1200pt" height="1200pt" version="1.1" viewBox="0 0 1200 1200" xmlns="http://www.w3.org/2000/svg">
 <g>
  <path d="m975.57 969.73c-21.73 0-39.566 17.676-39.566 39.566s17.676 39.566 39.566 39.566c21.73 0 39.566-17.676 39.566-39.566 0.003907-21.891-17.836-39.566-39.566-39.566zm0 54.648c-8.4336 0-15.242-6.8125-15.242-15.242 0-8.4336 6.8125-15.242 15.242-15.242 8.4336 0 15.242 6.8125 15.242 15.242 0.003906 8.4297-6.9727 15.242-15.242 15.242z"/>
  <path d="m545.68 969.73c-21.73 0-39.566 17.676-39.566 39.566s17.676 39.566 39.566 39.566 39.566-17.676 39.566-39.566-17.836-39.566-39.566-39.566zm0 54.648c-8.4336 0-15.242-6.8125-15.242-15.242 0-8.4336 6.8125-15.242 15.242-15.242 8.4336 0 15.242 6.8125 15.242 15.242 0 8.4297-6.9727 15.242-15.242 15.242z"/>
  <path d="m1118.4 954.81-9.5664-25.621c-4.0547-10.703-14.27-17.836-25.621-18v-94.703c0-24-19.461-43.461-43.461-43.461h-166.05v-44.27h0.16406c9.2422 0 18-4.5391 23.027-12.324 5.1875-7.7852 6.1641-17.512 2.5938-26.109l-6.4883-15.566c-4.3789-10.379-14.434-17.188-25.621-17.188h-153.08c-11.352 0-21.406 6.8125-25.621 17.188l-6.4883 15.566c-3.5664 8.5938-2.5938 18.324 2.5938 26.109 4.7031 6.9727 12.324 11.188 20.594 12l-16.055 79.785h-24.488c-12 0-22.215 7.7852-26.109 18.488l-21.891 7.4609-74.109-32.758c-6.8125-3.082-14.434-3.2422-21.242-0.48828-6.8125 2.5938-12.324 7.7852-15.406 14.594h-49.297c-3.7305-9.7305-12.812-16.379-23.352-16.379h-12.164c-11.352 0-21.242 7.6211-24.324 18.488l-8.2695 29.836c-2.4336 8.5938-3.5664 17.512-3.5664 26.434v96.812c-5.5117 6.6484-9.7305 14.109-12.164 22.055-2.918 9.5664-8.7578 24.164-19.621 34.703-10.703-62.918-37.621-154.86-104.43-188.27-42.648-21.242-94.539-15.242-154.05 18-11.676 6.4883-15.891 21.242-9.7305 33.242 4.2148 7.9453 12.488 12.812 21.566 12.812 2.2695 0 4.3789-0.32422 6.9727-0.97266 26.434-7.6211 90.973-20.594 121.14 22.703 14.594 20.918 24.973 42.488 30.973 64.055 2.1094 7.7852 1.1367 15.891-2.918 22.863-4.0547 7.1367-10.703 12.164-18.648 14.109l-46.379 12c-19.945 5.1875-33.891 23.027-33.891 43.621 0 6.6484 5.5117 12.164 12.164 12.164h195.73c6.8125 0 13.297-2.918 18-7.7852l58.539-63.082c6.4883 47.676 47.512 84.648 96.973 84.648 42.973 0 79.461-27.891 92.758-66.324h244.54c13.137 38.594 49.785 66.324 92.758 66.324 54 0 98.109-43.945 98.109-98.109 0-5.6758-0.64844-11.352-1.6211-16.703h20.434c9.082 0 17.676-4.5391 22.863-12 5.1953-7.7891 6.4922-17.355 3.25-25.949zm-78.648-157.46c10.539 0 19.137 8.5938 19.137 19.137v94.703h-83.352c-23.836 0-45.566 8.5938-62.594 22.703v-18.648c0-1.4609 0.64844-2.918 1.6211-3.8906l27.242-27.242c0.97266-0.97266 2.4336-1.6211 3.8906-1.6211h12.164c16.379 0 29.836-13.461 29.836-29.836v-7.4609c0-16.539-13.461-29.836-29.836-29.836h-84.164v-17.836l166.05-0.011719zm-374.76 110.43h47.027l-1.9453 6.6484c-2.2695 7.2969-3.7305 14.594-5.0273 22.215h-34.379c-3.4062 0-6.4883-1.2969-8.918-3.5664l-38.594-36.973 15.242-8.2695c3.4023 11.348 13.945 19.945 26.594 19.945zm138.81-105.25c-5.5117 2.7578-10.539 6.8125-14.109 12.164l-13.785 20.27c-2.2695 3.4062-6.1641 5.5117-10.379 5.5117h-19.461c-3.8906 0-7.4609-1.7852-9.7305-4.7031l-22.215-28.055 15.891-78.973h73.621l0.007812 73.785zm-120.97 158.27h20.109c0 0.48828-0.16406 0.8125-0.16406 1.2969 0 16.215 2.4336 32.27 7.1367 47.836l1.9453 6.6484h-29.188v-55.781zm35.191-77.352c-5.5117 0-10.055-4.5391-10.055-10.055v-34.379l9.4062 11.836c6.9727 8.918 17.512 13.945 28.863 13.945h19.461c12.164 0 23.512-6 30.488-16.055l13.785-20.27c2.2695-3.4062 6.1641-5.5117 10.379-5.5117h29.188v68.594c0 1.2969-0.16406 2.4336-0.64844 3.5664l-7.2969 18.973c-1.4609 3.8906-5.1875 6.4883-9.4062 6.4883h-42.488c-4.0547 0-7.9453-2.5938-9.4062-6.4883l-3.2422-8.5938c-5.0273-13.137-18-22.055-32.109-22.055zm97.945 61.297h16.055c14.109 0 27.082-8.918 32.109-22.055l7.2969-18.973c1.4609-3.8906 2.2695-8.1094 2.2695-12.324v-51.891h84.164c3.082 0 5.5117 2.4336 5.5117 5.5117v7.4609c0 3.082-2.4336 5.5117-5.5117 5.5117h-12.164c-7.9453 0-15.406 3.082-21.082 8.7578l-27.242 27.242c-5.6758 5.6758-8.7578 13.137-8.7578 21.082v47.512c0 3.082-2.4336 5.5117-5.5117 5.5117h-61.621c-3.082 0-5.5117-2.4336-5.5117-5.5117zm33.406-146.11h-21.242v-69.891h21.242zm-144.65-99.082 6.4883-15.566c0.48828-1.2969 1.7852-2.1094 3.2422-2.1094h153.08c1.4609 0 2.5938 0.8125 3.2422 2.1094l6.4883 15.566c0.64844 1.4609 0 2.5938-0.32422 3.2422-0.32422 0.64844-1.2969 1.6211-2.918 1.6211h-165.89c-1.6211 0-2.4336-0.97266-2.918-1.6211-0.49219-0.48438-1.1406-1.7812-0.49219-3.2422zm-43.297 136.38c0-1.9453 1.6211-3.4062 3.4062-3.4062h19.461l-0.48828 2.7578c-0.16406 0.8125-0.16406 1.6211-0.16406 2.4336v35.676c0 3.5664 0.64844 6.8125 1.6211 10.055h-20.434c-1.9453 0-3.4062-1.6211-3.4062-3.4062zm-131.19-12.484c0.64844-0.32422 1.6211-0.48828 2.5938 0l49.945 22.055-35.027 12-25.137-11.188c-1.7852-0.8125-2.5938-2.7578-1.7852-4.5391l7.2969-16.539c0.65625-0.98047 1.4648-1.4648 2.1133-1.7891zm-64.215 23.836-2.1094-7.6211h32.758c-0.64844 4.5391-0.16406 9.2422 1.4609 13.621 2.7578 6.9727 7.9453 12.324 14.758 15.406l0.97266 0.48828-31.297 10.703c-4.5391 1.6211-8.918 3.7305-13.137 6.3242v-12.488c0.16016-8.918-1.1367-17.84-3.4062-26.434zm-56.594 26.434c0-6.6484 0.97266-13.461 2.7578-19.945l9.082-30.488 12.973 0.64844 8.2695 29.836c1.7852 6.4883 2.7578 13.137 2.7578 19.945v34.215l-35.836 36.973zm-205.3 187.46 46.379-12c14.27-3.7305 26.27-12.812 33.566-25.461 7.2969-12.648 9.2422-27.406 5.3516-41.512-6.6484-24.164-18.324-48.164-34.539-71.352-39.082-56.109-116.43-41.027-148.05-32.594 52.215-29.027 96.324-35.027 131.35-17.512 62.918 31.461 85.461 131.84 93.082 181.14-4.8633 4.5391-7.9453 10.863-7.9453 17.836v9.4062 0.16406h-130.7c2.5898-4.0586 6.6445-6.9766 11.512-8.1133zm168 7.9492-24.648-0.16406-0.48828-9.2422c0.8125-0.32422 1.6211-0.8125 2.4336-1.1367 0.48828-0.16406 0.97266-0.32422 1.4609-0.64844 27.566-12.648 40.215-41.676 45.406-58.379 1.7852-5.8359 5.0273-11.352 9.7305-16.055l68.109-70.215c4.5391-4.7031 10.215-8.2695 16.539-10.379l146.59-49.945v7.7852l-94.379 50.594c-44.27 1.2969-81.082 31.945-91.945 73.137zm173.51 13.781c-40.703 0-73.785-33.082-73.785-73.785 0-40.703 33.082-73.785 73.785-73.785s73.621 33.082 73.621 73.785c0 40.703-33.082 73.785-73.621 73.785zm36-164.75 18.973-10.215 44.434 42.488c3.8906 3.7305 8.5938 6.4883 13.621 8.1094v57.891h-15.242c0.16406-2.4336 0.32422-4.8633 0.32422-7.2969-0.16406-41.355-25.949-76.707-62.109-90.977zm155.84 98.27-4.2148-13.621c-4.0547-13.137-6-26.918-6-40.703s2.1094-27.566 6-40.703l4.2148-13.621h7.6211c4.0547 0 7.9453 2.5938 9.4062 6.4883l3.2422 8.5938c5.0273 13.137 18 22.055 32.109 22.055h1.9453v17.836c0 16.539 13.461 29.836 29.836 29.836h57.566c-0.97266 5.5117-1.6211 11.027-1.6211 16.703 0 2.4336 0.16406 4.8633 0.32422 7.2969h-140.43zm238.05 66.484c-40.703 0-73.621-33.082-73.621-73.785 0-40.703 33.082-73.785 73.621-73.785 40.703 0 73.785 33.082 73.785 73.785 0 40.703-33.242 73.785-73.785 73.785zm119.68-116.27c-0.32422 0.48828-1.2969 1.4609-2.918 1.4609h-28.055c-5.8359-12.488-14.109-23.676-24.488-32.594h42.973c1.4609 0 2.7578 0.97266 3.2422 2.2695l9.5664 25.621c0.65234 1.457 0.16797 2.5938-0.32031 3.2422z"/>
  <path d="m1017.4 837.08h11.676c6.6484 0 12.164-5.5117 12.164-12.164 0-6.6484-5.5117-12.164-12.164-12.164h-11.676c-6.6484 0-12.164 5.5117-12.164 12.164 0 6.6484 5.5156 12.164 12.164 12.164z"/>
  <path d="m1017.4 874.86h11.676c6.6484 0 12.164-5.5117 12.164-12.164 0-6.6484-5.5117-12.164-12.164-12.164h-11.676c-6.6484 0-12.164 5.5117-12.164 12.164 0 6.6523 5.5156 12.164 12.164 12.164z"/>
  <path d="m79.785 612.32c0 6.6484 5.5117 12.164 12.164 12.164h769.62c6.6484 0 12.164-5.5117 12.164-12.164 0-6.6484-5.5117-12.164-12.164-12.164l-282 0.003906c25.945-19.621 42.648-49.461 42.648-82.703 0-32.594-15.73-61.621-40.539-81.406 28.055-10.055 48.164-35.188 48.164-64.703 0-38.109-33.242-69.082-74.109-69.73 3.7305-8.2695 5.8359-17.352 5.8359-26.918 0-6.8125-1.4609-13.461-3.4062-19.621-0.16406-1.7852-0.64844-3.4062-1.6211-4.8633-7.6211-18.648-23.676-33.566-43.785-40.539 12.324-12.324 19.945-28.703 19.945-46.863 0-38.434-33.73-69.891-75.242-69.891-24.648 0-46.379 11.352-60.164 28.539-0.48828 0.48828-0.8125 0.97266-1.2969 1.4609-5.3516 7.1367-9.2422 15.406-11.512 24.164-12.648-9.082-28.379-14.758-45.73-14.758-41.352 0-75.082 31.297-75.082 69.891 0 6 1.1367 11.676 2.5938 17.188-8.7578-2.2695-17.836-3.4062-27.242-3.4062-34.215 0-64.379 15.73-83.027 39.566-0.32422 0.32422-0.48828 0.64844-0.8125 0.97266-11.676 15.406-18.488 34.055-18.488 54.164 0 22.055 8.2695 42.164 21.891 58.215-28.855 6.3203-50.422 30.32-50.422 59.188 0 17.676 8.2695 33.566 21.242 44.758-13.137 5.6758-24.324 14.27-32.758 24.973-0.48828 0.48828-0.97266 0.97266-1.2969 1.4609-9.7305 12.973-15.566 28.539-15.566 45.566 0 21.406 9.2422 40.863 24.324 55.137l-12.164-0.003906c-6.6484 0.16406-12.16 5.5117-12.16 12.324zm147.73-12.16c13.461-12.812 21.891-29.836 23.676-48.488 17.512 11.836 39.082 18.973 62.434 18.973 31.137 0 59.027-12.324 78.488-31.945 0.32422 1.7852 0.97266 3.5664 1.4609 5.3516 0.16406 0.48828 0.16406 0.8125 0.32422 1.2969 6.3242 21.891 19.945 41.027 38.434 54.973h-204.82zm-93.242-182.27c5.3516 15.891 21.082 27.566 39.73 27.566 8.4336 0 16.539-2.4336 23.512-6.8125 5.6758-3.5664 7.2969-11.188 3.7305-16.863-3.5664-5.6758-11.188-7.2969-16.863-3.7305-3.082 1.9453-6.6484 2.918-10.379 2.918-9.7305 0-17.512-6.6484-17.512-14.918 0-8.1094 7.7852-14.918 17.512-14.918h0.16406c22.863 0 41.352 16.539 41.352 36.812 0 20.434-18.648 36.973-41.352 36.973-23.027 0-41.676-16.539-41.676-36.973 0-3.5664 0.64844-6.8086 1.7812-10.055zm204.32-146.43c1.7852 0 3.5664-0.32422 5.1875-0.48828 33.242-2.1094 60.648-24.164 67.945-53.352 5.8359 4.2148 12.324 7.6211 19.297 10.055-12.324 12.488-19.945 28.863-19.945 47.027 0 1.6211 0.48828 3.2422 0.48828 4.8633-7.6211-2.4336-15.73-4.0547-24.324-4.0547-18.164 0-34.703 6.3242-47.676 16.379-1.6211-7.2969-4.2148-14.27-7.4609-20.918 2.2734 0.16406 4.3828 0.48828 6.4883 0.48828zm154.05 139.3c-30.324 3.2422-57.082 17.188-75.73 37.785-3.4062-12.648-9.5664-24.488-17.836-34.703 35.836-5.1875 63.566-33.891 63.566-68.434 0-1.7852-0.48828-3.4062-0.48828-5.0273 7.2969 2.2695 15.082 3.8906 23.188 3.8906-3.7305 8.2695-5.8359 17.512-5.8359 27.082 0 14.594 4.8672 28.055 13.137 39.406zm-54.324-65.516c0 6.6484-1.7852 12.973-4.7031 18.648-3.5664-20.918-22.863-36.973-46.215-36.973-9.4062 0-18.648 2.5938-26.434 7.7852-5.6758 3.5664-7.2969 11.188-3.7305 16.863 3.5664 5.6758 11.188 7.2969 16.863 3.7305 3.8906-2.5938 8.5938-3.8906 13.297-3.8906 12.488 0 22.703 8.7578 22.703 19.621 0 9.4062-7.7852 17.352-18 19.137-1.6211 0.16406-3.082 0.48828-4.7031 0.48828-27.891 0-50.758-20.27-50.758-45.242 0-25.137 22.703-45.566 50.758-45.566 28.059-0.16797 50.922 20.266 50.922 45.398zm-119.03 28.867c-1.4609 0-2.918-0.16406-4.3789-0.16406 0.97266-0.97266 1.9453-1.9453 2.918-2.918 0.48828 0.97266 0.97656 1.9453 1.4609 3.082zm-84 31.945c-0.16406-0.32422-0.16406-0.8125-0.48828-1.2969h1.6211c-0.48438 0.48438-0.80859 0.80859-1.1328 1.2969zm13.945 111.41c11.836-0.32422 25.461-4.2148 37.621-16.215 4.7031-4.7031 4.7031-12.488 0-17.188-4.7031-4.7031-12.488-4.7031-17.188 0-12.164 12-27.242 9.7305-34.863 7.6211-1.7852-6.1641-3.082-12.488-3.082-19.137 0-17.352 6.8125-33.082 18-45.73 11.676 10.215 33.406 25.945 60 30.324 0.64844 0.16406 1.2969 0.16406 2.1094 0.16406 5.8359 0 11.027-4.2148 12-10.215 1.1367-6.6484-3.4062-12.973-9.8906-13.945-18.812-3.2422-35.352-14.27-45.242-22.379 12.973-7.7852 28.539-12.488 45.242-12.488 35.027 0 64.703 19.785 76.539 47.512-3.7305 8.7578-17.188 31.945-59.676 39.242-6.6484 1.1367-11.027 7.4609-10.055 13.945 0.97266 6 6.1641 10.215 12 10.215 0.64844 0 1.2969 0 2.1094-0.16406 29.512-5.0273 48.324-16.703 60.488-28.539-4.5391 36.812-39.082 65.836-81.406 65.836-26.598-0.15625-49.785-11.508-64.707-28.859zm348.65 0c0 19.785-7.7852 37.945-20.594 52.055 0.48828-3.2422 1.1367-6.3242 1.1367-9.5664 0-6.6484-5.5117-12.164-12.164-12.164-6.6484 0-12.164 5.5117-12.164 12.164 0 22.215-21.566 40.215-48 40.215h-0.16406c-26.434 0-47.836-18-47.836-40.215 0-13.297 7.7852-25.785 20.918-33.406 6.6484-3.8906 15.242-4.0547 22.215-0.48828 3.2422 1.6211 8.7578 5.5117 9.4062 13.137 0.16406 2.5938 0.8125 9.4062-16.055 14.594-6.4883 1.9453-10.055 8.7578-7.9453 15.242 1.9453 6.4883 8.7578 10.055 15.242 7.9453 30.973-9.7305 33.891-29.188 33.082-39.891-1.1367-13.945-9.4062-25.785-22.379-32.594-14.27-7.4609-31.785-7.1367-45.73 0.97266-20.594 12-32.918 32.27-32.918 54.488 0 3.4062 0.48828 6.4883 1.1367 9.7305-7.1367-7.7852-12.648-16.863-16.055-26.758 11.676-18.324 59.027-84 116.11-54 3.7305 1.9453 11.836 11.352 13.785 19.785 0.32422 1.1367 0.8125 3.8906-0.16406 5.0273-3.8906 5.5117-2.7578 12.973 2.7578 17.027 5.5117 3.8906 12.973 2.7578 17.027-2.7578 3.4062-4.7031 6.9727-12.973 4.0547-24.812-3.5664-15.406-16.379-30.648-26.109-35.676-53.188-27.891-101.68 5.1875-131.19 39.73 5.5117-41.027 44.27-72.973 90.973-72.973 50.27-0.003907 91.621 37.293 91.621 83.188zm7.4609-146.11c0 12.812-6.1641 24.324-15.73 32.594 4.3789-8.4336 6-17.352 4.3789-25.621-5.5117-26.434-34.215-36.488-35.512-36.812-6.3242-2.2695-13.297 1.2969-15.406 7.6211-2.1094 6.3242 1.2969 13.297 7.6211 15.406 0.16406 0 16.863 6.3242 19.461 18.812 0.64844 3.4062-0.48828 7.7852-3.4062 12-6 8.7578-17.676 14.918-31.945 17.676-16.539-6.3242-28.379-20.27-30.488-36.812 10.539 12.488 24.648 18.812 33.891 20.434 0.64844 0.16406 1.4609 0.16406 2.1094 0.16406 5.6758 0 10.863-4.0547 11.836-9.8906 1.2969-6.4883-3.082-12.973-9.7305-14.27-2.5938-0.48828-23.836-5.6758-27.242-30 9.2422-10.215 23.188-16.863 39.082-16.863 28.219-0.003906 51.082 20.426 51.082 45.562zm-72.324-114.65c-2.918 5.8359-11.836 18.324-36.164 22.379-6.6484 1.1367-11.027 7.4609-10.055 13.945 0.97266 6 6.1641 10.215 12 10.215 0.64844 0 1.2969 0 2.1094-0.16406 14.109-2.4336 24.648-6.9727 32.758-12.324-7.2969 17.027-25.785 29.188-47.512 29.188-13.297 0-25.461-4.7031-34.539-12.324 6.6484-1.6211 13.461-4.7031 19.461-10.863 4.7031-4.7031 4.7031-12.488 0-17.188-4.7031-4.7031-12.488-4.7031-17.188 0-5.8359 5.6758-12.812 5.5117-17.352 4.5391-0.64844-3.082-1.1367-6.1641-1.1367-9.4062 0-9.2422 3.082-17.836 8.4336-24.973 8.7578 6.9727 22.379 15.891 38.918 18.648 0.64844 0.16406 1.2969 0.16406 2.1094 0.16406 5.8359 0 11.027-4.2148 12-10.215 1.1367-6.6484-3.4062-12.973-9.8906-13.945-8.918-1.4609-17.027-6-23.188-10.215 6.8125-3.082 14.434-5.0273 22.539-5.0273 20.75 0 38.75 11.352 46.695 27.566zm-75.73-139.62c28.055 0 50.918 20.434 50.918 45.566 0 12.812-6.1641 24.324-15.73 32.594 4.3789-8.4336 6-17.352 4.3789-25.621-5.5117-26.434-34.215-36.488-35.512-36.812-6.3242-2.2695-13.297 1.2969-15.406 7.6211-2.1094 6.3242 1.2969 13.297 7.6211 15.406 0.16406 0 16.863 6.3242 19.461 18.812 0.64844 3.4062-0.48828 7.9453-3.4062 12.164-6 8.5938-17.512 14.918-31.945 17.676-16.539-6.3242-28.379-20.27-30.488-36.812 10.539 12.488 24.648 18.812 33.891 20.434 0.64844 0.16406 1.4609 0.16406 2.1094 0.16406 5.8359 0 10.863-4.0547 12-10.055 1.1367-6.6484-3.2422-12.973-9.8906-14.109-0.97266-0.16406-23.512-4.8633-27.082-30 9.2461-10.379 23.191-17.027 39.082-17.027zm-118.7 39.242c28.055 0 50.918 20.434 50.918 45.566 0 6.6484-1.7852 12.973-4.7031 18.648-3.5664-20.918-22.863-36.973-46.215-36.973-9.4062 0-18.648 2.5938-26.434 7.7852-5.6758 3.5664-7.2969 11.188-3.7305 16.863 3.5664 5.6758 11.188 7.2969 16.863 3.7305 3.8906-2.5938 8.4336-3.8906 13.297-3.8906 12.488 0 22.703 8.7578 22.703 19.621 0 9.4062-7.7852 17.352-18 19.137-1.6211 0.16406-3.082 0.48828-4.7031 0.48828-27.891 0-50.758-20.27-50.758-45.242 0.16797-25.301 22.871-45.734 50.762-45.734zm-99.566 83.676c43.137 0 78.324 31.621 78.324 70.539 0 29.352-20.27 54.488-48.812 64.863 4.7031-4.2148 8.918-8.7578 12.324-13.621 8.918-12.812 12.324-27.082 9.5664-40.215-7.2969-34.863-45.73-48.324-47.352-48.973-6.3242-2.1094-13.137 1.2969-15.406 7.6211-2.2695 6.3242 1.1367 13.297 7.4609 15.406 0.32422 0.16406 27.082 9.7305 31.461 30.812 1.2969 6.4883-0.64844 14.109-5.8359 21.406-9.5664 13.785-27.73 23.676-50.109 27.891-29.027-10.215-49.621-35.512-49.621-65.188 0-3.4062 0.64844-6.4883 1.1367-9.7305 13.785 26.109 39.242 38.109 54.488 40.863 0.64844 0.16406 1.4609 0.16406 2.1094 0.16406 5.6758 0 10.863-4.0547 11.836-9.8906 1.2969-6.6484-3.082-12.973-9.7305-14.109-1.6211-0.32422-39.082-8.4336-43.621-49.945 14.43-17.031 36.645-27.895 61.781-27.895zm-73.297 249.41c34.055 0 61.785 24.973 61.785 55.461 0 19.621-11.512 36.648-28.863 46.539 0.97266-1.1367 2.1094-2.1094 3.082-3.4062 7.6211-11.027 10.539-23.352 8.1094-34.539-6.1641-29.836-38.918-41.188-40.215-41.676-6.3242-2.1094-13.137 1.2969-15.406 7.6211-2.1094 6.3242 1.1367 13.297 7.4609 15.406 0.16406 0 20.918 7.4609 24.324 23.676 0.97266 4.7031-0.64844 10.379-4.3789 15.73-7.4609 10.703-21.73 18.488-39.082 21.73-22.539-8.2695-38.434-28.055-38.434-51.082 0-0.48828 0.16406-0.8125 0.16406-1.2969 12.164 18.164 30.973 26.758 42.812 28.863 0.64844 0.16406 1.4609 0.16406 2.1094 0.16406 5.8359 0 10.863-4.0547 12-10.055 1.1367-6.6484-3.2422-12.973-9.8906-14.109-1.2969-0.16406-29.676-6-33.73-37.945 11.34-12.652 28.531-21.082 48.152-21.082z"/>
 </g>
</svg>
