<?xml version="1.0" encoding="UTF-8"?>
<svg width="1200pt" height="1200pt" version="1.1" viewBox="0 0 1200 1200" xmlns="http://www.w3.org/2000/svg">
 <path d="m1160 1081.8h-402.04l-78.121-682.12 266.89-101.82 50.762 126.3v503.64c0 13.246 10.754 24 24 24 13.246 0 24-10.754 24-24v-493.56c29.27-17.316 50.113-47.809 59.328-87.719 9.9961-43.332 5.0742-93.168-13.883-140.3-18.949-47.137-49.871-86.508-87.098-110.87-39.887-26.102-82.379-32.258-119.62-17.27-12.289 4.9453-18.254 18.926-13.309 31.223l57.898 144.02-395.95 151.05c-0.070313 0.023438-0.13281 0.046875-0.20312 0.070313l-174.91 66.73c-18.504-27.035-49.223-43.859-82.789-43.859-13.824 0-27.301 2.8203-40.066 8.3633l-22.008 9.5742c-50.809 22.117-74.148 81.457-52.031 132.27 11.184 25.668 32.352 44.746 57.707 54.047v450.21l-178.55 0.007813c-13.246 0-24 10.754-24 24 0 13.246 10.754 24 24 24h1120c13.246 0 24-10.754 24-24-0.003906-13.25-10.742-24-24.004-24zm-182.43-946.27c29.074 19.02 53.531 50.496 68.844 88.609 15.324 38.113 19.453 77.746 11.641 111.6-4.6797 20.27-13.367 36.574-25.094 47.965l-106.7-265.43c16.344 0.11719 33.898 5.8672 51.309 17.254zm-292.1 735.16-146.39-122.95 117.91-125.7zm-149.15-190.18 22.883-199.79 82.738 87.191zm-13.32 116.39 153.89 129.25-183.48 129.23zm119.91-297.69-59.52-62.723 50.148-19.141zm-438.05 59.172c-11.555-26.543 0.63672-57.527 27.18-69.086l21.996-9.5742c6.6836-2.9023 13.715-4.3789 20.914-4.3789 20.914 0 39.828 12.395 48.18 31.57 11.555 26.543-0.63672 57.527-27.18 69.086l-21.992 9.5781c-6.6836 2.9023-13.715 4.3789-20.914 4.3789-20.93 0-39.844-12.395-48.184-31.574zm61.68 78.555c9.0977-1.2461 18-3.625 26.555-7.3438l22.008-9.5898c41.555-18.086 64.703-61.066 59.664-103.93l138.09-52.68-32.496 283.86v0.035156l-38.305 334.51h-175.51zm272.66 444.86 157.71-111.1 12.73 111.1z"/>
</svg>
