<?xml version="1.0" encoding="UTF-8"?>
<svg width="1200pt" height="1200pt" version="1.1" viewBox="0 0 1200 1200" xmlns="http://www.w3.org/2000/svg">
 <g>
  <path d="m600 56.25c-300 0-543.75 243.75-543.75 543.75s243.75 543.75 543.75 543.75 543.75-243.75 543.75-543.75-243.75-543.75-543.75-543.75zm18.75 1050v-148.12h-37.5v148.12c-264.38-9.375-478.12-223.12-487.5-487.5h148.12v-37.5h-148.12c9.375-264.38 223.12-478.12 487.5-487.5v148.12h37.5v-148.12c264.38 9.375 478.12 223.12 487.5 487.5h-148.12v37.5h148.12c-9.375 264.38-223.12 478.12-487.5 487.5z"/>
  <path d="m819.38 350.62-82.5 48.75c-39.375-26.25-86.25-41.25-136.88-41.25s-97.5 15-136.88 41.25l-80.625-48.75c-13.125-7.5-28.125-7.5-39.375 1.875s-15 24.375-9.375 37.5l43.125 110.62c-15 31.875-22.5 65.625-22.5 103.12 0 136.88 110.62 247.5 247.5 247.5s247.5-110.62 247.5-247.5c0-37.5-7.5-71.25-22.5-103.12l43.125-112.5c3.75-13.125 0-28.125-11.25-37.5-15-5.625-28.125-5.625-39.375 0zm-219.38 45c80.625 0 150 45 185.62 110.62-82.5 16.875-144.38 86.25-151.88 168.75h-69.375c-5.625-84.375-65.625-155.62-146.25-174.38 35.625-61.875 103.12-105 181.88-105zm-226.88-5.625 58.125 33.75c-11.25 11.25-22.5 22.5-31.875 35.625zm226.88 425.62c-116.25 0-210-93.75-210-210 0-24.375 3.75-46.875 11.25-69.375 71.25 13.125 125.62 76.875 125.62 150v26.25h142.5v-18.75c0-76.875 56.25-140.62 131.25-151.88 5.625 20.625 9.375 41.25 9.375 63.75 0 116.25-93.75 210-210 210zm200.62-354.38c-9.375-13.125-20.625-24.375-31.875-35.625l58.125-33.75z"/>
 </g>
</svg>
