<?xml version="1.0" encoding="UTF-8"?>
<svg width="1200pt" height="1200pt" version="1.1" viewBox="0 0 1200 1200" xmlns="http://www.w3.org/2000/svg">
 <g>
  <path d="m564.38 675h69.375c7.5-82.5 71.25-151.88 151.88-168.75-35.625-65.625-105-110.62-185.62-110.62-78.75 0-146.25 43.125-181.88 105 80.625 18.75 140.62 90 146.25 174.38z"/>
  <path d="m669.38 693.75v18.75h-142.5v-26.25c0-73.125-54.375-136.88-125.62-150-7.5 22.5-11.25 45-11.25 69.375 0 116.25 93.75 210 210 210s210-93.75 210-210c0-22.5-3.75-43.125-9.375-63.75-75 11.25-131.25 75-131.25 151.88z"/>
  <path d="m800.62 461.25 26.25-71.25-58.125 35.625c11.25 9.375 22.5 22.5 31.875 35.625z"/>
  <path d="m431.25 425.62-58.125-33.75 26.25 71.25c9.375-15 20.625-28.125 31.875-37.5z"/>
  <path d="m958.12 581.25h148.12c-9.375-264.38-223.12-478.12-487.5-487.5v148.12h-37.5v-148.12c-264.38 9.375-478.12 223.12-487.5 487.5h148.12v37.5h-148.12c9.375 264.38 223.12 478.12 487.5 487.5v-148.12h37.5v148.12c264.38-9.375 478.12-223.12 487.5-487.5h-148.12zm-90-191.25-43.125 112.5c15 31.875 22.5 65.625 22.5 103.12 0 136.88-110.62 247.5-247.5 247.5s-247.5-110.62-247.5-247.5c0-37.5 9.375-71.25 22.5-103.12l-43.125-110.62c-5.625-13.125-1.875-28.125 9.375-37.5s26.25-9.375 39.375-1.875l80.625 46.875c39.375-26.25 86.25-41.25 136.88-41.25s97.5 15 136.88 41.25l82.5-48.75c11.25-7.5 24.375-5.625 35.625 1.875 13.125 9.375 18.75 24.375 15 37.5z"/>
 </g>
</svg>
