<?xml version="1.0" encoding="UTF-8"?>
<svg width="1200pt" height="1200pt" version="1.1" viewBox="0 0 1200 1200" xmlns="http://www.w3.org/2000/svg">
 <path d="m462.43 1071c-5.9141-1.1055-10.211-6.2539-10.246-12.254l-0.097656-16.402c-0.23828-33.023-0.49219-67.152 0.19141-100.78 0.26562-12.539-4.0547-20.316-15.852-28.668-16.895-11.902-23.195-18.168-30.445-25.43-2.0273-2.0391-4.1875-4.1992-6.7578-6.6367-27.77-26.316-40.848-52.715-38.879-78.422 1.2109-15.828 9.0234-22.43 15.395-25.176 18.984-8.2578 45.852 8.5547 80.328 36.312 2.2812 1.8477 4.1406 3.3359 5.3867 4.2734 14.844 11.148 31.906 20.113 48.023 25.234 64.477 20.543 134.95-5.0039 195.36-32.711 7.5-3.4453 14.484-4.9922 20.855-4.6211 25.262-50.207 34.402-118.22 35.676-148.6 0.12109-2.4609 0.34766-5.4375 0.63672-8.6992 0.70703-8.5781 2.5781-31.332-3.2383-34.945-7.1406-4.4414-21-3.5898-33.238-2.832-6.2148 0.38281-12.059 0.74219-17.543 0.51562-20.473-0.86328-39.984-3.793-57.984-8.7461-2.5547-0.68359-5.3633-1.2734-8.2422-1.8945-4.2969-0.91016-9.0234-1.9062-13.754-3.3828-2.1016 12.852-5.5078 28.738-9.0469 45.168-3.6016 16.727-7.2969 33.938-8.5938 44.062 25.969 9.8398 41.34 31.68 43.402 63.133 1.5469 23.438-7.1641 46.992-23.328 63-14.82 14.711-35.004 21.91-56.52 20.219-42.121-3.1914-73.848-35.902-73.848-76.105 0-41.988 33.551-76.141 74.785-76.141 3.7578 0 7.4297 0.16797 10.969 0.46875 1.6211-11.242 5.0625-27.18 8.6523-43.895 4.2969-20.039 9.1094-42.434 10.309-54.938-12.059-16.777-6.9844-43.008 1.4141-57.805 10.715-18.887 30.59-20.387 45.098-21.48l1.4297-0.10938c18.719-1.4414 38.484-4.2227 64.078-9 18.266-3.4219 37.43-7.4141 56.832-12.574-29.438-14.746-63.984-31.008-89.148-36.012-5.8672-1.1641-11.746-2.293-17.688-3.3945-0.25391-0.035156-0.49219-0.085937-0.75781-0.13281-19.008-3.5156-38.207-6.6953-56.941-9.793-63.984-10.598-130.14-21.562-192.34-45.949-45.684-17.891-87.539-44.352-124.38-78.625-9.793-9.1094-19.008-18.852-27.91-28.297-4.7773-5.0391-9.5625-10.105-14.387-15.035l-2.9531-3.0234c-4.1875-4.2969-8.1484-8.375-12.371-11.52-20.93-15.574-31.477-12.383-37.598-8.6289-6.7812 4.1875-12.637 21.012-11.879 30.012 1.2852 14.832 11.578 30.098 21 44.102 21.539 32.062 46.176 60.301 75.324 86.316 15.359 13.715 30.781 27.324 46.223 40.934l2.6875 2.3516c12.742 11.219 28.32 26.652 36.07 46.559 7.1875 18.422 7.4531 26.438 8.0391 42.422l0.15625 3.8398c0.30078 8.4961-3.1211 30.887-6.793 51.875 2.3633-2.832 4.7148-5.6641 7.0547-8.4961 6.3594-7.7031 12.684-15.359 19.129-22.668l4.2344-4.9062c3.7578-4.3789 7.5234-8.7617 11.605-12.793 14.426-14.27 29.629-18.359 45.227-12.18 16.246 6.4453 26.184 20.09 27.926 38.398 1.3555 14.016-3.8281 27.289-8.0391 37.992-7.6797 19.477-20.09 39.875-37.859 62.375-5.7461 7.2461-11.664 14.363-17.746 21.348-10.355 11.879-21.574 23.879-34.297 36.719-2.4102 2.3984-4.7891 4.9062-7.2344 7.4414-8.7344 9.1445-17.746 18.602-28.477 25.945-1.6562 1.1172-3.3477 2.125-5.0898 3.1094-1.5 0.85156-3.7812 2.1484-4.043 2.2812l-1.7539 33c-1.3672 25.285-2.7344 50.605-3.7578 75.91-1.9062 46.621-4.7891 92.555-8.5312 136.51-0.33594 3.9844-2.5547 7.5859-5.9766 9.6484-3.4062 2.0898-7.5977 2.3867-11.305 0.85156-61.727-25.656-148.66-92.965-186.02-144.1-1.6328-2.2188-2.4609-4.8594-2.4375-7.5977 0.51562-29.734 1.4023-61.094 2.9297-101.71 0.42188-11.27-1.9219-17.723-9-24.648-43.246-42.383-70.246-82.547-84.91-126.41-8.5078-25.559-13.68-52.703-15.758-83.004-0.80469-11.508 2.7109-23.004 10.754-35.16 1.1406-1.7031 2.6406-3.0977 4.4023-4.0781 26.41-14.508 39.539-11.051 54.098 14.102 5.8438 10.105 11.258 20.473 16.656 30.84 5.3984 10.402 11.016 21.168 16.945 31.32 32.746 56.062 66.254 83.387 112.05 91.355 7.5 1.3203 16.715 1.6797 28.152 1.1055 10.895-0.5625 23.629-3.457 34.922-8.0039 16.633-6.6484 31.055-17.184 44.258-29.594 4.6797-23.508 14.09-75.457 13.727-85.859l-0.15625-3.8867c-0.53906-15.191-0.69531-19.766-6.3359-34.223-5.7852-14.879-18.707-27.516-29.293-36.863l-2.6992-2.293c-15.469-13.645-30.961-27.289-46.32-41.027-30.719-27.434-56.711-57.215-79.766-91.535-10.223-15.203-22.945-34.117-24.816-55.43-1.2617-15.098 6.4453-42.816 23.699-53.473 19.031-11.723 41.113-8.4258 65.699 9.8516 5.832 4.3438 10.691 9.3359 15.371 14.16l2.8555 2.9141c4.9805 5.0742 9.8633 10.246 14.746 15.422 8.6289 9.1445 17.555 18.602 26.762 27.156 7.1523 6.6484 14.508 12.996 22.055 19.008-0.88672-5.1484-1.8945-9.0703-2.832-10.414-41.328-30.66-57.469-56.062-49.246-77.617 4.2344-11.195 11.746-15.203 17.305-16.598 16.402-4.1289 34.117 9.7812 49.355 23.113 1.7656 1.5234 3.1445 2.7734 4.0781 3.4805 9.0703 6.7812 19.453 12.227 29.219 15.336 16.008 5.1016 33.742 5.7969 54.121 2.1719 2.1953-0.39453 4.3555-0.17969 6.2891 0.50391 16.199-40.906 58.176-72.492 103.29-72.492 21.66 0 42.637 7.4883 59.496 20.941-1.3672-7.4297-2.3164-15.133-2.8672-23.207-0.55078-7.5117 1.6562-14.941 6.7578-22.691 1.1172-1.7031 2.6406-3.1094 4.4141-4.0938 16.922-9.3242 27.672-6.4805 37.117 9.8047 3.2266 5.5547 6.2031 11.27 9.1797 16.98 2.9297 5.6523 5.8672 11.305 9.0977 16.801 16.848 28.859 33.887 42.887 56.977 46.906 3.6484 0.63672 8.207 0.80469 14.016 0.51562 5.3047-0.26562 11.578-1.6914 17.184-3.9492 17.258-6.8984 29.723-21.996 42.938-37.992 3.5156-4.2461 7.0078-8.4727 10.57-12.516l2.3398-2.7227c2.1133-2.4492 4.2109-4.8945 6.5156-7.1758 11.977-11.809 23.293-10.789 30.707-7.8594 10.754 4.2461 17.605 13.598 18.77 25.656 0.88672 9.0859-2.375 17.305-4.7539 23.27-4.3789 11.137-11.387 22.715-21.395 35.363-0.73047 0.89844-1.7539 2.0898-3.0977 3.5742 43.57 9.2656 76.355 48.047 76.355 94.332 0 53.184-43.262 96.434-96.457 96.434-53.172 0-96.434-43.262-96.434-96.434 0-48.719 36.301-89.125 83.293-95.543 1.3789-1.4766 3-3.1914 4.7148-4.9805 4.1758-4.4023 10.477-11.039 11.953-12.926 8.4844-10.703 14.293-20.195 17.762-29.039 1.5234-3.8398 3.4219-8.6055 3.1328-11.641-0.32422-3.4453-1.6562-4.2227-3.5508-4.957 0 0.011718-1.0547 0.22656-3.3711 2.5312-1.8008 1.7891-3.4453 3.7188-5.1133 5.6523l-2.6055 3.0117c-3.3711 3.8398-6.707 7.8594-10.031 11.902-13.969 16.883-29.762 36.023-52.945 45.289-8.207 3.2773-17.172 5.3047-25.246 5.7109-7.6211 0.34766-14.039 0.097656-19.559-0.86328-39.324-6.8633-60.371-35.113-74.293-58.957-3.4219-5.8438-6.5625-11.855-9.6953-17.867-2.7969-5.3867-5.5938-10.766-8.6406-15.996-0.26562-0.48047-0.51562-0.88672-0.75781-1.2617-0.66016 1.5-0.96094 2.7969-0.86328 3.9258 1.0078 14.773 3.4922 27.973 7.6211 40.332 6.9375 20.809 20.102 40.199 41.363 61.031 7.7266 7.5586 11.113 16.441 10.691 27.938-0.58984 15.672-2.2578 87.383-2.9141 118.36 2.6523 0.50391 5.2812 1.0195 7.9219 1.5469 33.781 6.707 79.715 30.109 113.24 47.184l5.6758 2.8789c31.031-10.727 61.738-25.273 89.594-45.996 43.246-32.184 66.551-78.227 85.297-123.18l6.0703-14.723c9.6367-23.473 19.598-47.734 32.41-70.645 7.8945-14.137 21.562-20.844 38.375-18.91 14.543 1.6797 24.926 10.57 30.852 26.438 4.7031 12.574 4.6797 25.297 3.9375 37.152-1.4141 24.035-4.6914 47.93-9.7305 70.98-8.6172 39.781-22.703 78.984-41.855 116.54-5.5781 10.969-12.254 21.312-18.719 31.309-10.633 16.465-20.676 32.016-25.703 49.5-1.8477 6.4219-4.7539 26.004-5.1133 85.5 8.2812-3.707 17.438-5.7461 27.098-5.7461 36.77 0 66.695 29.902 66.695 66.684 0 36.793-29.914 66.73-66.695 66.73s-66.707-29.93-66.707-66.73c0-15.672 5.4258-30.098 14.531-41.508-0.16797-59.473 1.8711-97.094 6.1211-111.84 6.0469-21.047 17.578-38.914 28.738-56.184 6.3945-9.8984 12.434-19.262 17.438-29.09 18.168-35.641 31.523-72.805 39.707-110.5 4.7656-21.793 7.8594-44.387 9.1914-67.152 0.66016-10.547 0.49219-19.141-2.3867-26.867-3.3008-8.832-6.7305-9.9258-10.262-10.332-8.293-0.98438-11.508 2.4375-13.668 6.2656-12.086 21.59-21.758 45.145-31.105 67.922l-6.1445 14.844c-20.113 48.254-45.336 97.848-93.445 133.64-59.82 44.496-130.34 62.184-191.44 73.609-26.508 4.957-47.113 7.8477-66.758 9.3594l-1.4531 0.10938c-14.34 1.0781-21.492 2.3047-25.223 8.8555-5.6523 9.9844-7.7539 26.426-1.8828 31.922 0.011719 0.011718 0.023438 0.023437 0.035156 0.023437 4.1758 3.8867 13.031 5.7734 20.809 7.4297 3.3945 0.71875 6.6602 1.4297 9.6602 2.2422 16.199 4.4531 33.828 7.1055 52.402 7.8828 4.1992 0.20312 9.4336-0.14453 14.977-0.48047 15.973-0.98438 34.066-2.0898 47.965 6.5391 18.828 11.688 16.512 39.719 14.977 58.285-0.25391 2.8906-0.46875 5.4844-0.55078 7.6797-1.4766 34.992-11.426 106.33-39.145 160.37 3.6367 7.2969 2.4375 15.672 1.7266 20.473l-0.34766 2.5078c-1.4883 12.758-7.3438 24.527-16.934 34.105-10.355 10.285-21.191 19.715-32.438 28.234 7.3555 29.242 27.277 70.32 42.156 101 3.7305 7.668 7.1875 14.809 10.152 21.133 71.688-22.895 129.78-64.883 181.81-108.31-0.44531-0.51562-0.875-1.0078-1.3203-1.5-2.0391-2.3281-3.1445-5.3633-3.0977-8.4609 0.38281-23.328 1.1406-46.691 1.9922-70.031 0.25391-6.6602-0.96094-10.055-5.0156-14.016-30.203-29.578-49.066-57.707-59.352-88.5-5.9766-17.82-9.5898-36.805-11.039-58.031-0.63672-8.8555 1.9922-17.578 8.0273-26.699 1.1406-1.6914 2.6406-3.0859 4.4141-4.0547 19.922-10.922 31.402-7.8828 42.445 11.184 4.0781 7.0547 7.8477 14.27 11.617 21.492 3.7188 7.1523 7.4414 14.305 11.496 21.254 21.887 37.453 44.137 55.691 74.34 60.938 4.8945 0.86328 10.969 1.1055 18.492 0.71875 7.0938-0.35938 15.395-2.2578 22.801-5.2422 22.621-9.0234 38.676-28.453 55.668-49.031 4.4297-5.3398 8.7969-10.656 13.262-15.73l2.832-3.2773c2.6758-3.1445 5.3633-6.2539 8.2578-9.0859 11.062-11.004 22.992-14.137 35.258-9.2539 12.445 4.8945 20.34 15.73 21.707 29.699 1.0312 10.621-2.9023 20.629-5.7852 27.926-5.4492 13.766-14.16 28.129-26.629 43.871-3.9609 5.0391-8.1016 9.9492-12.301 14.82-7.2461 8.3047-15.023 16.645-23.785 25.453-1.6211 1.6211-3.2539 3.3359-4.9219 5.0898-6.1562 6.4219-12.516 13.055-20.207 18.336-1.1992 0.81641-2.4961 1.5586-3.7578 2.293-0.30078 0.19141-0.625 0.33594-0.91016 0.50391-0.27734 6.4688-0.44531 14.293-0.66016 23.41-0.76953 32.578-1.9219 81.793-8.9766 143.76-0.42188 3.8398-2.6289 7.2617-5.9023 9.2773-3.3008 2.0156-7.3555 2.3867-10.969 1.0312-32.605-12.324-74.293-42.613-110.87-79.848-56.867 47.578-120.94 93.73-202.27 117.17-6 1.7539-12.422-1.2461-14.953-7.0078-3.5625-8.1367-8.6406-18.613-14.363-30.395-14.676-30.266-32.328-66.695-41.41-96.852-12.875 8.0625-26.258 15.047-40.02 20.867-4.9062 2.1016-3.9727 19.836-3.5742 27.422 0.17969 3.4688 0.32422 6.6367 0.32422 9.2539-0.21484 27.215-0.79297 56.723-1.8008 90.168-0.19141 6.3594-5.1133 11.555-11.426 12.121-18.395 1.5977-35.051 2.3516-50.867 2.3516-35.492 0.019532-71.73-3.3672-107.77-10.133zm146.7-94.68c0.035157-2.207-0.12109-4.8477-0.26562-7.7539-0.85156-16.02-2.2695-42.805 18.781-51.781 31.402-13.309 60.48-33.133 86.387-58.871 5.6172-5.6055 8.9023-12.07 9.7422-19.246l0.44531-3.2031c0.19141-1.3086 0.46875-3.2383 0.53906-4.6211-2.6172-0.44531-6.4922 0.9375-9.4688 2.293-64.777 29.699-140.79 56.93-213.39 33.805-18.707-5.9531-38.387-16.285-55.453-29.051-1.4297-1.0781-3.4922-2.7461-6.0977-4.8242-40.105-32.316-51.719-33.648-54.023-33.324-0.023438 0-0.75781 1.0781-1.0078 4.5703-1.3789 17.832 9.0977 37.477 31.129 58.355 2.7461 2.6055 5.0391 4.8711 7.2461 7.0781 6.7422 6.7188 12.047 12 27.191 22.703 11.641 8.207 27.059 22.297 26.461 49.621-0.66016 33.312-0.42188 67.273-0.19141 100.12l0.046875 6.0234c31.152 5.2422 62.363 7.9062 92.902 7.9062 11.855 0 24.254-0.46875 37.598-1.3906 0.78516-28.727 1.2656-54.445 1.4336-78.406zm-181.49-418.25c-3.6133 3.5391-6.8867 7.4023-10.176 11.258l-4.4766 5.1719c-6.2539 7.1172-12.422 14.566-18.613 22.066-26.09 31.598-53.09 64.262-93.277 80.316-13.969 5.6055-29.23 9.0703-42.984 9.7578-13.285 0.67188-24.324 0.20312-33.684-1.4141-68.09-11.879-104.9-61.5-129.39-103.41-6.2383-10.68-11.977-21.719-17.531-32.387-5.2305-10.043-10.453-20.074-16.105-29.855-5.0625-8.7344-7.1523-10.055-7.332-10.176-0.66016 0.035156-3 0.22656-10.199 3.9844-3.8047 6.3828-5.4102 11.867-5.0625 17.074 1.9453 28.152 6.707 53.281 14.555 76.789 13.332 39.961 38.34 76.969 78.684 116.46 12.098 11.844 17.184 25.246 16.5 43.477-1.4531 38.473-2.3164 68.605-2.832 96.875 33.168 43.391 102.07 97.906 157.13 125.2 3-38.172 5.3398-77.664 7.0078-117.67 1.0312-25.43 2.4102-50.82 3.7695-76.246l1.7539-32.891c0.68359-13.656 11.039-19.586 16.598-22.766 1.1406-0.66016 2.3164-1.3086 3.3711-2.0273 8.5547-5.8672 16.691-14.375 24.539-22.598 2.5312-2.6406 5.0391-5.2578 7.5234-7.7656 12.348-12.445 23.23-24.07 33.215-35.508 5.832-6.707 11.508-13.523 16.992-20.461 16.246-20.531 27.457-38.867 34.223-56.004 3.3711-8.5938 7.1992-18.336 6.3945-26.387-0.83984-8.8789-4.8477-14.617-12.215-17.531-1.4531-0.57422-2.9766-1.0547-4.7539-1.0547-3.332 0.003906-7.5234 1.7188-13.617 7.7305zm719.15 139.41c-2.4102 2.3516-4.5703 4.9453-6.7695 7.5234l-3.0859 3.5742c-4.2969 4.8945-8.5195 9.9961-12.758 15.145-18.254 22.105-37.141 44.93-65.688 56.34-10.008 3.9844-20.953 6.4688-30.828 6.9844-9.4453 0.46875-17.293 0.12109-24.047-1.0547-48.395-8.4102-74.41-43.43-91.703-72.996-4.2734-7.2969-8.1719-14.797-12.086-22.297-3.5898-6.8867-7.1992-13.801-11.09-20.531-1.3438-2.3398-2.3047-3.7578-2.9531-4.5977-0.66016 0.25391-1.5977 0.68359-2.8906 1.3086-1.7891 3.2539-2.543 6-2.3633 8.5547 1.2969 19.094 4.5117 36.047 9.8047 51.84 8.9766 26.891 25.871 51.84 53.125 78.539 9.2031 8.9766 13.043 19.094 12.527 32.832-0.79297 21.562-1.4883 43.129-1.8828 64.668 1.8477 2.0625 3.7188 4.1289 5.6172 6.1562 0.44531 0.38281 0.86328 0.82812 1.2617 1.2969 0.14453 0.16797 0.25391 0.3125 0.39453 0.49219 29.977 31.859 64.945 59.578 93.793 74.461 5.293-52.895 6.2891-95.387 6.9844-124.45 0.23828-10.43 0.43359-19.188 0.78125-26.219 0.5625-11.531 9.1914-16.477 13.344-18.852 0.70703-0.42188 1.4023-0.81641 2.0625-1.2461 5.5312-3.8047 10.992-9.5039 16.246-15.012 1.7656-1.8359 3.5039-3.6719 5.2578-5.4102 8.3867-8.4375 15.793-16.367 22.645-24.227 3.9492-4.5703 7.8242-9.1914 11.594-13.945 10.906-13.789 18.422-26.09 22.957-37.547 2.1602-5.4844 4.6211-11.688 4.1758-16.297-0.58984-5.9297-3.3242-7.7656-5.9766-8.7969-0.51563-0.21484-1.0547-0.44531-1.7539-0.44531-1.3672 0.007812-3.2891 0.83594-6.6953 4.2109zm-621.62 59.172c0 27.406 21.312 48.898 50.699 51.145 18.324 1.3438 30.238-6.3125 37.008-13.031 10.895-10.812 17.039-27.492 15.961-43.547-0.75781-11.305-3-45.66-53.93-45.66-27.43-0.003906-49.738 22.918-49.738 51.094zm465.78-110.02c-0.33594 0.42188-0.71875 0.80469-1.0938 1.1758-6.6133 7.3789-10.621 17.125-10.621 27.758 0 22.98 18.684 41.688 41.652 41.688 22.945 0 41.641-18.707 41.641-41.688 0-22.957-18.695-41.652-41.641-41.652-11.746-0.003906-22.367 4.8828-29.938 12.719zm-179.21-370.45c-1.0078 0.23828-2.0391 0.34766-3.0703 0.28906-35.438 4.1406-63.047 34.367-63.047 70.906 0 39.359 32.016 71.387 71.375 71.387s71.398-32.027 71.398-71.387c0-39.371-32.039-71.398-71.398-71.398-1.7656 0-3.5273 0.058594-5.2578 0.20312zm-172.64 9.1328c-6.7578 59.914-49.141 101.77-103.07 101.77-27.742 0-52.945-10.992-71.508-28.848-0.12109 0.71875-0.25391 1.4648-0.37109 2.2188-0.78125 4.5859-1.6445 9.4688-2.4727 14.52 49.414 15.215 101.18 23.797 151.62 32.148 14.23 2.3633 28.754 4.7656 43.273 7.332 0.69531-32.16 2.2422-99.012 2.832-114.71 0.17969-4.9805-0.79297-6.7695-3.1797-9.1094-6.0469-5.9297-11.555-11.785-16.5-17.629 0.042969 4.0898-0.17578 8.1953-0.62891 12.301zm-206.28-1.418c0-3.7305 0.25391-7.4297 0.67188-11.102-22.68 3.4805-42.887 2.2578-61.656-3.707-12.348-3.9375-25.344-10.738-36.613-19.164-1.2852-0.96094-3.2148-2.6055-5.5547-4.6562-17.293-15.109-24.191-17.941-25.945-18.133 0 0-0.37109 0.40625-0.82812 1.6562-2.0273 5.3281 4.2734 21.551 40.754 48.602 12.301 9.1094 14.605 36.828 14.977 50.207 21.238 14.039 43.754 25.727 67.355 34.98 3.8398 1.5117 7.7383 2.9648 11.629 4.3789 0.63672-3.7188 1.2461-7.3203 1.8242-10.754 1.7773-10.309 3.6133-20.902 4.1992-26.352-6.9141-13.832-10.812-29.445-10.812-45.957zm25.055 0c0 43.094 35.039 78.145 78.145 78.145 40.754 0 72.91-32.711 78.191-79.535v-0.011719c2.3984-21.254-4.2734-42.469-18.348-58.211-13.715-15.359-32.449-23.82-52.715-23.82-43.836 0-85.273 40.559-85.273 83.434zm-290.6 271.99c0-49.355 32.555-83.16 81.047-84.121 0.42188-0.011719 0.82812-0.011719 1.2734-0.011719 22.094 0 45.672 11.23 61.871 29.52 14.594 16.512 21.086 36.539 18.254 56.375-7.0312 49.262-39.66 82.355-81.191 82.355-44.801 0.003906-81.266-37.738-81.254-84.117zm81.516-59.074c-41.652 0.82812-56.484 31.055-56.484 59.074 0 32.566 25.234 59.074 56.242 59.074 32.953 0 52.055-30.562 56.387-60.852 1.7656-12.457-2.5664-25.32-12.254-36.238-11.363-12.863-28.223-21.07-43.105-21.07-0.24609 0-0.52344 0-0.78516 0.011719zm148.91-261.11c-29.172-2.1953-51.18-24.961-51.18-52.934 0-29.207 23.387-52.957 52.105-52.957 32.305 0 52.766 18 54.758 48.156 1.0664 16.188-4.9688 32.473-16.199 43.57-9.3945 9.3242-21.816 14.328-35.293 14.328-1.3828 0.003907-2.7852-0.042969-4.1914-0.16406zm-26.113-52.934c0 14.977 11.762 26.734 28.008 27.961 7.9219 0.5625 14.676-1.7383 19.969-6.9844 6.0469-5.9766 9.4219-15.215 8.832-24.133-0.76953-11.52-4.8477-24.758-29.762-24.758-14.902 0.003907-27.047 12.531-27.047 27.914zm310.5-12.418c0-29.723 20.426-50.879 49.691-51.445 13.621-0.22656 28.691 6.625 38.746 17.977 9.0586 10.262 13.066 22.777 11.293 35.258-4.2461 29.711-24.266 49.68-49.789 49.68-27.535 0-49.941-23.078-49.941-51.469zm50.176-26.387c-15.742 0.30078-25.129 10.164-25.129 26.398 0 14.566 11.16 26.41 24.863 26.41 15.469 0 23.137-15.191 24.996-28.188 0.94922-6.5039-2.3281-11.809-5.2578-15.098-5.0625-5.7227-12.73-9.5273-19.176-9.5273-0.082031 0.003907-0.20312 0.015625-0.29688 0.003907z"/>
</svg>
