<?xml version="1.0" encoding="UTF-8"?>
<svg width="1200pt" height="1200pt" version="1.1" viewBox="0 0 1200 1200" xmlns="http://www.w3.org/2000/svg">
 <g fill-rule="evenodd">
  <path d="m108.83 961.23h533.28c3.9609 33.613 20.68 63.281 45.332 83.906h-485.83c-49.16 0-84.668-37.238-92.785-83.906zm889.86-805.89c49.172 0 84.734 37.215 92.867 83.879l-190.65 0.003906c7.2422-47.762 47.867-83.883 97.785-83.883zm-659.86-30.199c-71.309 0-129.21 57.922-129.21 129.24v676.64h-123.62c-7.7852 0-13.547 7.293-13.547 15.078 0 71.309 57.84 129.24 129.17 129.24l570.96-0.078125c29.121 0 55.906-10.492 77.293-27.078 12.453-9.2383 4.668-28.961-10.762-27.16-2.8398 0.28125-5.4922 1.3984-7.707 3.1992-20.281 12.215-41.453 20.84-60.961 20.906-53.906 0.26562-96.332-42.027-98.906-95.359-0.76172-14.719-6.3867-18.746-17.625-18.746h-414.04v-676.64c0-55.078 43.828-99.039 98.961-99.039h576.88c-27 22.707-44.508 56.227-45.961 93.879l-0.28125 98.668c-0.83984 20.906 31.039 20.906 30.215 0v-78.465h213.2c8.332-0.078125 15-6.7461 15.078-15.055 0-70.492-56.586-129.12-126.88-129.12z"/>
  <path d="m885.49 843.31c10.492 0.90625 20.707 5.9062 28.199 14.734l100.62 118.96c15 17.707 12.922 43.387-4.8672 58.387-17.707 15-43.387 12.867-58.387-4.8398l-100.71-118.96c-15-17.707-12.84-43.414 4.9219-58.414 8.8438-7.4961 19.75-10.695 30.215-9.8672zm-257.08-509.02c73.414-0.90625 146.54 29.719 197.71 90.215 91.039 107.55 77.707 268.12-29.785 359.01-107.51 90.961-267.97 77.508-359.01-30-91.039-107.55-77.707-267.92 29.785-358.88 47.078-39.801 104.22-59.668 161.3-60.348zm-0.41406-30.078c-63.879 0.76172-127.92 22.922-180.41 67.348-120 101.54-135 281.54-33.465 401.54 98.332 116.12 270.21 133.96 390 42.922l21.172 25.055c-20.133 26.199-20.055 63.852 2.0781 90.027l100.62 118.88c25.492 30.16 70.906 33.961 100.99 8.4922 30.133-25.52 34.039-70.906 8.4648-101.07l-100.62-118.93c-22.16-26.121-59.293-32.375-88.414-16.879l-21.254-25.16c109.54-102.97 120.36-275.33 22.078-391.45-57.129-67.5-139.16-101.73-221.23-100.77z"/>
  <path d="m631.75 489.76c80.625-0.054688 128.41 46.746 179.24 92.652-50.762 45.84-98.414 92.426-179.09 92.508-80.707 0.13281-128.49-46.613-179.38-92.508 50.844-45.906 98.551-92.574 179.23-92.652zm-212.97 81.25c-6.8789 5.9883-6.8789 16.691 0 22.707 53.961 47.652 111.8 110.49 212.97 110.49 101.12 0.054687 158.91-62.84 212.92-110.49 6.8789-6.0117 6.8789-16.719 0-22.707-54.012-47.625-111.8-110.62-212.84-110.62-101.12 0-159.04 62.922-213.05 110.62z"/>
  <path d="m631.75 543.67c21.613 0 38.691 17.215 38.691 38.746 0 21.508-17.078 38.668-38.691 38.668-21.508 0-38.746-17.16-38.746-38.668 0-21.535 17.238-38.746 38.746-38.746zm0-30.203c-37.922 0-68.961 31.039-68.961 68.961s31.039 68.879 68.961 68.879 68.906-30.961 68.906-68.879-30.984-68.961-68.906-68.961z"/>
 </g>
</svg>
