<?xml version="1.0" encoding="UTF-8"?>
<svg width="1200pt" height="1200pt" version="1.1" viewBox="0 0 1200 1200" xmlns="http://www.w3.org/2000/svg">
 <g>
  <path d="m316.92 457.95-124.05-108.79c-11.898-128.35-94.562-196.32-169.06-217.2-6.4492-1.8086-13.375-0.039063-18.168 4.6445-4.7891 4.6797-6.7188 11.562-5.0625 18.055 1.6602 6.4883 6.6562 11.602 13.105 13.41 63.684 17.844 134.54 77.516 142.41 191.46 0.33984 4.9414 2.6211 9.5469 6.3438 12.809l129.56 113.63c4.1055 3.5625 6.918 8.3789 7.9961 13.707-0.035156 1.6406-1.3164 3.5508-4.0117 5.832-43.98 38.258-45.098 40.266-46.875 43.457-3.4727 6.5898-4.5078 14.191-2.9297 21.469l0.64844 4.668c0.78906 5.5938 1.582 11.195 2.2891 16.809l-0.23047 0.12891c-3.9727 2.3242-27.758 16.195-35.715 20.828h0.003906c-8.2109 4.7578-13.43 13.371-13.844 22.852-0.13672 15.957 15.672 23.145 38.012 31.559 4.918 1.8477 12.02 4.3594 18.246 6.4258 3.5156 17.395 7.9844 56.641-13.348 89.555-12.492 18.289-30.293 32.309-51.004 40.16-101.93 42.387-125.2 158.98-95.48 252.27l0.003906 0.003906c2.0391 6.375 7.3203 11.18 13.859 12.605 6.543 1.4258 13.348-0.74609 17.855-5.6914 4.5078-4.9492 6.0352-11.926 4.0078-18.305-24.52-76.977-6.9219-172.54 74.148-206.25 27.734-10.711 51.5-29.703 68.066-54.391 37.746-58.207 16.352-127.46 15.426-130.39l0.003907 0.003906c-2.0039-6.2773-7.1484-11.047-13.562-12.562-4.0469-1.1172-13.449-4.2383-22.605-7.625 6.8555-4 13.02-7.5898 14.879-8.6797 6.1055-2.8125 11.203-7.4219 14.609-13.215 3.4062-5.7891 4.9609-12.484 4.4531-19.188-0.85938-7.3711-1.8945-14.75-2.9375-22.129l-0.44922-3.2227c7.2773-6.7188 22.906-20.527 36.906-32.703l-0.003907 0.003907c10.488-8.168 16.754-20.613 17.078-33.898-1.0195-16.207-8.4219-31.348-20.582-42.105z"/>
  <path d="m1199.3 144.95c-1.3398-4.7891-4.5273-8.8516-8.8633-11.289-4.3398-2.4375-9.4648-3.0508-14.254-1.7031-74.496 20.875-157.16 88.84-169.06 217.2l-124.12 108.86h-0.003906c-12.117 10.75-19.488 25.863-20.496 42.031 0.29688 13.211 6.5 25.594 16.898 33.742 14.137 12.305 29.793 26.137 37.078 32.855l-0.44922 3.2227c-1.043 7.3789-2.0781 14.758-2.9375 22.102v0.003906c-0.51172 6.707 1.043 13.41 4.4531 19.207 3.4102 5.8008 8.5156 10.414 14.625 13.227 1.8477 1.082 8.0117 4.6797 14.859 8.668-9.1562 3.3867-18.559 6.5078-22.605 7.625l0.003906 0.003906c-6.4102 1.5156-11.559 6.2852-13.559 12.562-0.92578 2.9219-22.32 72.18 15.426 130.39v-0.003906c16.566 24.688 40.332 43.68 68.066 54.391 81.07 33.707 98.664 129.28 74.148 206.25-1.5156 4.7383-1.0859 9.8867 1.1953 14.309s6.2266 7.7539 10.969 9.2656c4.7383 1.5117 9.8867 1.0742 14.305-1.2109 4.4219-2.2852 7.75-6.2344 9.2578-10.973 29.719-93.281 6.4531-209.88-95.48-252.27v-0.003906c-20.711-7.8516-38.512-21.871-51.004-40.16-21.156-32.648-16.754-72.113-13.301-89.574 6.2148-2.0703 13.293-4.5664 18.199-6.4102 22.34-8.4141 38.148-15.602 38.012-31.648-0.44531-9.4648-5.6797-18.055-13.891-22.785-7.9102-4.6055-31.695-18.477-35.652-20.793l-0.24609-0.13672c0.70312-5.6016 1.5-11.207 2.2891-16.809l0.74219-5.2734c1.4609-7.043 0.41797-14.375-2.9453-20.734-1.8477-3.3242-2.9648-5.3281-47.121-43.742h-0.003907c-1.9922-1.2969-3.375-3.3438-3.8359-5.6758 1.0469-5.2461 3.7891-10 7.8008-13.531l129.76-113.8v-0.003906c3.7227-3.2617 6.0039-7.8672 6.3438-12.809 7.875-113.95 78.727-173.62 142.41-191.46 4.7891-1.3438 8.8477-4.5312 11.281-8.8672 2.4375-4.3359 3.0508-9.4609 1.7109-14.25z"/>
  <path d="m808.23 517.22c17.062-29.801 26.039-63.539 26.051-97.875 0-117.49-104.84-213.08-233.69-213.08-128.86 0-233.7 95.586-233.7 213.08 0.011719 33.98 8.8008 67.383 25.52 96.965l-57.355 80.727c-6.5 9.1445-8.5625 20.715-5.625 31.539 2.9375 10.828 10.566 19.77 20.797 24.375 10.227 4.6055 21.98 4.3867 32.031-0.58984l99.91-49.453c36.367 19.328 76.914 29.461 118.1 29.516 41.184 0.050781 81.754-9.9766 118.17-29.211l99.301 49.148c10.051 4.9766 21.805 5.1914 32.031 0.58594 10.227-4.6055 17.855-13.547 20.793-24.371s0.875-22.395-5.6211-31.539zm-91.418 43.344c-34.699 22.484-75.176 34.418-116.52 34.359-41.348-0.058594-81.789-12.109-116.43-34.691l-118.24 58.523 72.109-101.49c-21.508-28.125-33.219-62.516-33.34-97.922 0-96.969 87.84-175.58 196.19-175.58 108.36 0 196.19 78.609 196.19 175.58h0.003906c-0.13281 35.746-12.07 70.445-33.961 98.707l71.551 100.7z"/>
  <path d="m693.75 337.51h-187.5c-6.6992 0-12.887 3.5742-16.238 9.375-3.3477 5.8008-3.3477 12.949 0 18.75 3.3516 5.8008 9.5391 9.375 16.238 9.375h187.5c6.6992 0 12.887-3.5742 16.238-9.375 3.3477-5.8008 3.3477-12.949 0-18.75-3.3516-5.8008-9.5391-9.375-16.238-9.375z"/>
  <path d="m693.75 412.51h-187.5c-6.6992 0-12.887 3.5742-16.238 9.375-3.3477 5.8008-3.3477 12.949 0 18.75 3.3516 5.8008 9.5391 9.375 16.238 9.375h187.5c6.6992 0 12.887-3.5742 16.238-9.375 3.3477-5.8008 3.3477-12.949 0-18.75-3.3516-5.8008-9.5391-9.375-16.238-9.375z"/>
 </g>
</svg>
