<?xml version="1.0" encoding="UTF-8"?>
<svg width="1200pt" height="1200pt" version="1.1" viewBox="0 0 1200 1200" xmlns="http://www.w3.org/2000/svg">
 <g>
  <path d="m789.36 1033.4c-1.4648 0.046875-128.41 7.4062-234.65 13.566-10.336 0.60547-18.227 9.4766-17.633 19.812 0.60547 10.336 9.6875 18.32 19.812 17.633 79.246-4.6055 230.11-13.359 233.53-13.531 7.6914-0.11719 15.344 2.6836 15.711 5.1992 2.6562 18.09-52.406 31.961-70.496 36.512-3.8086 0.96094-7.25 1.832-10.18 2.6289-23.219 6.3438-135.13 33.297-178.88 41.016-63.484 11.27-112.18 7.5234-153.22-11.781-25.535-11.984-49.008-28.016-73.863-44.98-29.93-20.441-60.883-41.574-95.93-55.168-21.699-8.4609-42.867-9.9609-61.184-4.3477-0.44922 0.13672-0.88672 0.29297-1.3281 0.45703l-13.496 5.2656-0.003906-113.12 91.699-14.586c0.67969-0.11719 68.316-11.488 125.33 28.691l4.1094 2.8945c20.379 14.336 41.438 29.18 61.871 44.062 1.9766 1.4375 4.6602 3.2578 7.8359 5.4102 11.535 7.8008 46.664 31.559 48.402 46.719 0.10156 0.87891 0.26562 2.2891-1.6836 4.7148-11.688 3.2656-48.641-9.8555-109.95-39.078-11.691-5.5742-20.133-9.5938-25.609-11.637-9.7148-3.5977-20.5 1.3359-24.113 11.039-3.6094 9.7031 1.3359 20.5 11.039 24.117 3.918 1.4453 12.543 5.5664 22.539 10.328 71.566 34.129 128.27 58.109 152.79 31.676 9.5039-10.246 13.734-22.496 12.25-35.43-3.4141-29.793-35.156-53.566-64.645-73.508-2.7539-1.8672-5.0898-3.4336-6.7852-4.668-20.656-15.051-41.848-29.977-62.348-44.414l-4.1016-2.8828c-69.617-49.074-150.07-35.551-153.13-35.02l-89.695 14.266c-8.1328-19.258-27.207-32.77-49.441-32.77h-93.906v271.28h93.906c27.637 0 50.371-20.875 53.312-47.699l26.742-10.438c12.68-3.6523 26.551-0.074219 36.016 3.6172 31.055 12.047 58.895 31.062 88.367 51.188 24.996 17.055 50.812 34.699 79.066 47.953 30.57 14.375 65.133 21.523 104.55 21.523 22.137 0 45.805-2.25 71.156-6.7461 45.574-8.0469 157.88-35.121 182.21-41.766 2.7109-0.74219 5.9141-1.5469 9.4844-2.4453 37.043-9.3281 106-26.695 98.418-78.312-3.3359-22.688-25.84-37.922-53.871-37.246zm-679.3 46.785c0 8.8711-7.25 16.086-16.148 16.086h-56.406v-196.28h56.406c8.8984 0 16.148 7.2227 16.148 16.094z"/>
  <path d="m1052.8 113.93-26.742 10.43c-12.707 3.6641-26.551 0.066406-36.016-3.6172-31.055-12.047-58.906-31.062-88.383-51.195-24.98-17.059-50.801-34.691-79.051-47.949-47.719-22.43-105.2-27.266-175.69-14.777-45.594 8.0469-157.89 35.121-182.22 41.766-2.7188 0.74219-5.9219 1.5469-9.4766 2.4453-37.062 9.3281-106.02 26.695-98.438 78.312 3.3242 22.676 25.223 38.188 53.887 37.242 1.4453-0.046876 128.39-7.4062 234.63-13.566 10.344-0.60547 18.238-9.4766 17.633-19.812-0.60547-10.328-9.3008-18.145-19.812-17.633-79.23 4.6055-230.1 13.359-233.53 13.531-8.0742 0.19141-15.336-2.6836-15.711-5.1992-2.6523-18.09 52.406-31.961 70.496-36.508 3.8086-0.96094 7.25-1.832 10.191-2.6289 23.227-6.3516 135.12-33.297 178.89-41.016 63.461-11.27 112.15-7.5273 153.22 11.781 25.523 11.984 48.98 28.008 73.828 44.98 29.938 20.434 60.902 41.574 95.949 55.168 21.715 8.4492 42.883 9.9609 61.195 4.3477 0.4375-0.13672 0.87891-0.29297 1.3164-0.45703l13.496-5.2656v113.11l-91.645 14.574c-0.66016 0.12891-68.812 11.188-125.37-28.684l-3.1484-2.2148c-20.691-14.566-42.098-29.625-62.824-44.742-1.9766-1.4375-4.668-3.2578-7.8555-5.4102-11.535-7.8008-46.656-31.559-48.395-46.719-0.10938-0.87891-0.27344-2.2891 1.6641-4.7148 11.645-3.2852 48.613 9.832 109.97 39.086 11.684 5.5742 20.125 9.5938 25.598 11.637 9.7031 3.5898 20.508-1.3359 24.113-11.039 3.6094-9.7031-1.3359-20.5-11.039-24.117-3.8984-1.4453-12.543-5.5664-22.539-10.328-71.578-34.141-128.27-58.145-152.79-31.668-9.5039 10.234-13.734 22.484-12.25 35.422 3.4219 29.793 35.176 53.566 64.656 73.508 2.7461 1.8672 5.0898 3.4336 6.793 4.668 20.965 15.281 42.48 30.434 63.301 45.082l3.1328 2.2148c44.344 31.258 93.086 37.125 123.41 37.117 17.305 0 28.617-1.9023 29.738-2.0977l89.676-14.266c8.1367 19.258 27.215 32.77 49.445 32.77h93.914v-271.28h-93.914c-27.629 0-50.371 20.875-53.309 47.711zm109.72 186.07h-56.414c-8.8984 0-16.148-7.2227-16.148-16.094v-164.1c0-8.8711 7.25-16.086 16.148-16.086h56.414z"/>
  <path d="m912.2 538.71h-0.40234l-49.09 0.55078c-7.25-31.566-20.031-60.938-37.262-87.176l34.332-35.102c13.258-13.496 11.609-36.512-3.6094-51.418l-27.52-26.918c-8.0742-7.918-18.383-11.938-28.234-11.938-8.6953 0-17.047 3.1328-23.234 9.4844l-34.332 35.121c-26.605-16.625-56.25-28.785-87.965-35.32l-0.55078-49.07c-0.19922-18.789-17.359-33.805-38.453-33.805h-0.49219l-38.488 0.42188c-21.258 0.23828-38.359 15.766-38.16 34.664l0.56641 49.09c-31.566 7.25-60.945 20.051-87.176 37.262l-35.102-34.297c-6.1328-6.0234-14.207-8.9727-22.613-8.9727-10.105 0-20.664 4.2656-28.805 12.578l-26.914 27.52c-14.867 15.215-15.992 38.27-2.4531 51.473l35.102 34.352c-16.637 26.605-28.793 56.23-35.348 87.945l-49.055 0.55078c-18.926 0.19922-34.051 17.648-33.82 38.926l0.44141 38.488c0.23047 21.176 15.555 38.16 34.266 38.16h0.36719l49.09-0.55078c7.25 31.551 20.07 60.918 37.281 87.121l-34.312 35.137c-13.273 13.512-11.617 36.512 3.5898 51.418l27.504 26.934c8.0938 7.8984 18.395 11.91 28.254 11.91 8.6875 0 17.039-3.1211 23.234-9.457l34.34-35.121c26.598 16.645 56.25 28.766 87.965 35.32l0.53125 49.055c0.21484 18.793 17.363 33.824 38.422 33.824h0.49219l38.508-0.44141c21.297-0.23828 38.379-15.746 38.176-34.68l-0.56641-49.074c31.547-7.2344 60.957-20.051 87.176-37.281l35.082 34.332c6.1328 6.0156 14.246 8.9609 22.633 8.9609 10.105 0 20.652-4.2578 28.785-12.57l26.934-27.504c14.887-15.254 15.965-38.289 2.4727-51.488l-35.121-34.367c16.645-26.586 28.785-56.23 35.34-87.926l49.074-0.58594c18.895-0.20312 34.039-17.613 33.801-38.91l-0.44141-38.508c-0.23438-21.125-15.543-38.117-34.238-38.117zm-2.8906 78.086-45.758 0.53906-30.156 0.36719-6.1172 29.535c-5.5469 26.816-15.766 52.258-30.395 75.633l-16.023 25.582 21.57 21.113 32.738 32.035c-0.16406 0.24609-0.38672 0.51172-0.66016 0.79688l-26.934 27.512c-0.27344 0.28516-0.53125 0.50391-0.76953 0.67969l-54.289-53.102-25.234 16.582c-23.09 15.172-48.305 25.957-74.961 32.07l-29.48 6.7461 0.36719 30.238 0.53125 45.711c-0.29297 0.054687-0.66016 0.10156-1.0781 0.10156l-38.566 0.43359c-0.36719 0-0.67969-0.027344-0.95312-0.074219l-0.49219-45.703-0.32812-30.203-29.59-6.1172c-26.859-5.5586-52.312-15.773-75.66-30.387l-25.598-16.023-21.113 21.586-31.996 32.73c-0.24609-0.15625-0.50391-0.36719-0.77734-0.63281l-27.492-26.926c-0.28516-0.28516-0.52344-0.55859-0.69531-0.80469l31.996-32.766 21.074-21.578-16.551-25.215c-15.16-23.082-25.965-48.293-32.082-74.926l-6.7656-29.441-30.203 0.33984-45.703 0.51172c-0.054688-0.29297-0.10156-0.64062-0.10938-1.0547l-0.43359-38.457c-0.007812-0.41406 0.027344-0.76953 0.082031-1.0625l45.711-0.51172 30.184-0.33984 6.1172-29.57c5.5312-26.762 15.766-52.223 30.426-75.652l15.992-25.59-21.562-21.094-32.711-32.016c0.16406-0.24609 0.36719-0.51172 0.64062-0.78906l26.898-27.504c0.28516-0.29297 0.55859-0.51172 0.80469-0.69531l32.719 31.969 21.574 21.082 25.203-16.551c23.09-15.145 48.32-25.938 75-32.062l29.453-6.7656-0.34766-30.211-0.53125-45.723c0.29297-0.066407 0.64062-0.10156 1.043-0.10156l38.492-0.42188h0.074219c0.38672 0 0.71484 0.027344 0.98828 0.074219l0.51172 45.723 0.32812 30.211 29.59 6.0977c26.77 5.5117 52.242 15.738 75.68 30.395l25.598 15.984 21.094-21.578 31.988-32.711c0.23828 0.16406 0.49609 0.375 0.76953 0.64844l27.504 26.879c0.29297 0.28516 0.51172 0.55859 0.69531 0.80469l-31.988 32.711-21.113 21.578 16.57 25.23c15.125 23.027 25.926 48.258 32.062 74.992l6.7734 29.434 30.195-0.33984 45.723-0.51172c0.054687 0.28516 0.09375 0.62109 0.09375 1.0078l0.44141 38.508c-0.007813 0.39844-0.042969 0.74609-0.078125 1.0391z"/>
  <path d="m600.01 459.45c-77.105 0-139.61 62.934-139.61 140.55s62.504 140.55 139.61 140.55c77.105 0 139.6-62.934 139.6-140.55 0.003906-77.617-62.492-140.55-139.6-140.55zm0 243.6c-56.305 0-102.11-46.227-102.11-103.05 0-56.828 45.805-103.05 102.11-103.05 56.285 0 102.1 46.227 102.1 103.05 0.003906 56.828-45.809 103.05-102.1 103.05z"/>
 </g>
</svg>
