<svg xmlns="http://www.w3.org/2000/svg" viewBox="0 0 153.7 153.7"><defs><style>.a{fill:#354435;}.b{fill:#fff;}.c{fill:#1d1d1b;}.d{fill:#808a7f;}.e{fill:#9ba59c;}.f{fill:#bcc3bc;}.g{fill:#dee0dc;}</style></defs><path class="a" d="M153.7,76.85A76.85,76.85,0,1,1,76.85,0,76.85,76.85,0,0,1,153.7,76.85"/><path class="b" d="M81.15,53.2l-.43,70.2L109.82,89s8.12-9,3.76-20.08c-4.07-10-8.45-10.19-10.84-16.88s.14-10.28.14-10.28a13.52,13.52,0,0,0-13.41-1.64c-7.89,3.11-8.32,13.13-8.32,13.13"/><path class="b" d="M105.26,52.47l15.87-8.58-16.22-.84s-2.36,3.24.35,9.42"/><path class="c" d="M94.86,47.06a1.78,1.78,0,1,1-1.78-1.77,1.78,1.78,0,0,1,1.78,1.77"/><path class="d" d="M49,39H32.57a27.7,27.7,0,0,0,27.69,27.7H76.73A27.7,27.7,0,0,0,49,39"/><path class="e" d="M55.45,71.33H42.81A21.27,21.27,0,0,0,64.08,92.6H76.73A21.27,21.27,0,0,0,55.45,71.33"/><path class="f" d="M62,96.25H53.31A14.68,14.68,0,0,0,68,110.93h8.73A14.69,14.69,0,0,0,62,96.25"/><path class="g" d="M68.38,114.57h-5a8.35,8.35,0,0,0,8.35,8.35h5a8.35,8.35,0,0,0-8.35-8.35"/></svg>